<svg width="70" height="48" viewBox="0 0 70 48" fill="none" xmlns="http://www.w3.org/2000/svg">
<path d="M17.4231 23.3724C17.4231 22.8201 16.9754 22.3724 16.4231 22.3724C15.8708 22.3724 15.4231 22.8201 15.4231 23.3724H17.4231ZM50.2331 23.3724H49.2331H50.2331ZM51.2331 13.882C51.2331 13.3298 50.7854 12.882 50.2331 12.882C49.6808 12.882 49.2331 13.3298 49.2331 13.882H51.2331ZM15.4231 23.3724C15.4231 25.2488 16.3142 26.6593 17.6159 27.5581C18.8831 28.433 20.5104 28.8111 22.0749 28.7848C23.6407 28.7584 25.2546 28.3255 26.5065 27.447C27.7836 26.5509 28.6931 25.1745 28.6931 23.3724H26.6931C26.6931 24.4171 26.1939 25.2231 25.3578 25.8098C24.4966 26.4141 23.293 26.764 22.0413 26.7851C20.7883 26.8062 19.5981 26.4963 18.7522 25.9123C17.9408 25.352 17.4231 24.5325 17.4231 23.3724H15.4231ZM28.6931 23.3724V13.882H26.6931V23.3724H28.6931ZM28.6931 13.882C28.6931 12.7179 29.2149 11.8685 30.0376 11.2772C30.8899 10.6647 32.0823 10.3262 33.3281 10.3262C34.574 10.3262 35.7663 10.6647 36.6186 11.2772C37.4413 11.8684 37.9631 12.7178 37.9631 13.882H39.9631C39.9631 12.009 39.0762 10.5804 37.7857 9.65307C36.5249 8.74695 34.8997 8.32616 33.3281 8.32617C31.7564 8.32618 30.1313 8.74699 28.8704 9.65311C27.58 10.5805 26.6931 12.009 26.6931 13.882H28.6931ZM37.9631 13.882V23.3724H39.9631V13.882H37.9631ZM37.9631 23.3724C37.9631 25.2452 38.8501 26.6735 40.1405 27.6007C41.4014 28.5066 43.0265 28.9273 44.5981 28.9273C46.1697 28.9273 47.7948 28.5066 49.0557 27.6007C50.3461 26.6735 51.2331 25.2452 51.2331 23.3724H49.2331C49.2331 24.5361 48.7114 25.3853 47.8887 25.9764C47.0364 26.5888 45.844 26.9273 44.5981 26.9273C43.3522 26.9273 42.1598 26.5888 41.3075 25.9764C40.4848 25.3853 39.9631 24.5361 39.9631 23.3724H37.9631ZM51.2331 23.3724V13.882H49.2331V23.3724H51.2331Z" fill="white"/>
<path d="M17.1971 19.291C17.1971 19.926 16.6773 20.4408 16.0361 20.4408C15.3948 20.4408 14.875 19.926 14.875 19.291C14.875 18.6559 15.3948 18.1412 16.0361 18.1412C16.6773 18.1412 17.1971 18.6559 17.1971 19.291Z" fill="white"/>
<path d="M55.125 7.15427V6.13224L50.9968 3.57714V0.766529C50.9968 0.563233 50.9153 0.368263 50.7701 0.224511C50.625 0.0807591 50.4281 0 50.2228 0C50.0175 0 49.8206 0.0807591 49.6755 0.224511C49.5303 0.368263 49.4488 0.563233 49.4488 0.766529V3.57714L45.3206 6.13224V7.15427L49.4488 5.87673V8.68733L48.4167 9.45386V10.2204L50.2228 9.70937L52.0289 10.2204V9.45386L50.9968 8.68733V5.87673L55.125 7.15427Z" fill="white"/>
<path d="M7.58552 46.5109V48H0V34.9091H1.80074V46.5109H7.58552Z" fill="white"/>
<path d="M22.4985 46.5566L22.4892 48H14.2505V34.9091H22.4892V36.3525H16.0606V40.7009H21.2669V42.0895H16.0606V46.5566H22.4985Z" fill="white"/>
<path d="M40.5554 34.9091L35.1065 48H33.483L28.0341 34.9091H29.4803C29.6421 34.9091 29.7727 34.9487 29.8722 35.0279C29.9717 35.107 30.0464 35.2075 30.0961 35.3293L33.8656 44.5651C33.9464 44.7722 34.0242 44.9975 34.0988 45.2411C34.1797 45.4847 34.2512 45.7405 34.3134 46.0085C34.3756 45.7405 34.4409 45.4847 34.5094 45.2411C34.5778 44.9975 34.6524 44.7722 34.7333 44.5651L38.4934 35.3293C38.5307 35.2258 38.6022 35.1314 38.708 35.0461C38.82 34.9548 38.9537 34.9091 39.1092 34.9091H40.5554Z" fill="white"/>
<path d="M55.2274 46.5566L55.2181 48H46.9794V34.9091H55.2181V36.3525H48.7895V40.7009H53.9958V42.0895H48.7895V46.5566H55.2274Z" fill="white"/>
<path d="M70 46.5109V48H62.4145V34.9091H64.2152V46.5109H70Z" fill="white"/>
</svg>
